<svg width="23" height="22" viewBox="0 0 23 22" fill="none" xmlns="http://www.w3.org/2000/svg">
<path d="M22.5677 10.582L19.8847 9.71721C18.1685 9.15094 17.1631 7.76221 16.6912 6.01716L15.5105 0.265803C15.4796 0.152163 15.4045 0 15.1734 0C14.9789 0 14.8671 0.152163 14.8363 0.265803L13.6556 6.01909C13.1818 7.76414 12.1783 9.15286 10.4621 9.71914L7.77907 10.584C7.39962 10.7072 7.39385 11.2427 7.77136 11.3717L10.4737 12.302C12.1841 12.8703 13.1818 14.257 13.6556 15.9944L14.8383 21.6822C14.8691 21.7958 14.9326 22 15.1753 22C15.4315 22 15.4816 21.7958 15.5124 21.6822L16.695 15.9944C17.1688 14.2551 18.1666 12.8683 19.8769 12.302L22.5793 11.3717C22.9529 11.2408 22.9472 10.7053 22.5677 10.582Z" fill="white"/>
<path d="M22.822 10.8228C22.7796 10.7168 22.6968 10.6244 22.5677 10.582L19.8847 9.71719C18.1685 9.15091 17.1631 7.76219 16.6912 6.01714L15.5105 0.26578C15.4931 0.200292 15.4315 0.0808735 15.3602 0.0462036L15.7416 5.81875C16.0247 8.45366 16.2674 9.69407 18.3707 10.0562C20.1774 10.3682 22.2673 10.7265 22.822 10.8228Z" fill="#F8F8F8"/>
<path d="M22.8277 11.1233L18.1742 12.1904C16.5351 12.6064 15.6318 13.556 15.6318 16.0406L15.1753 22C15.3313 21.9846 15.4584 21.8999 15.5124 21.6822L16.695 15.9944C17.1688 14.2551 18.1665 12.8683 19.8769 12.3021L22.5793 11.3718C22.7064 11.3255 22.7873 11.2312 22.8277 11.1233Z" fill="white"/>
<path d="M7.20125 15.586C5.5968 15.0563 5.45041 14.4593 5.18076 13.4519L4.50855 11.0943C4.4681 10.9422 4.07132 10.9422 4.02895 11.0943L3.57246 13.2728C3.30088 14.2763 2.72305 15.0737 1.73688 15.3992L0.165176 16.081C-0.0524736 16.1523 -0.0563259 16.4605 0.161324 16.5337L1.74458 17.0942C2.7269 17.4197 3.30088 18.2171 3.57439 19.2167L4.03087 21.3008C4.07325 21.453 4.4681 21.453 4.50855 21.3008L5.04401 19.2264C5.31559 18.2209 5.73163 17.4216 7.06642 17.0942L8.55337 16.5337C8.77102 16.4586 8.7691 16.1504 8.54952 16.0791L7.20125 15.586Z" fill="white"/>
<path d="M4.6357 13.4173C4.79942 14.9312 4.88225 15.3511 6.10918 15.665L8.66512 16.1639C8.63816 16.1273 8.59963 16.0965 8.54763 16.0811L7.19935 15.5861C5.79137 15.1045 5.40229 14.492 5.13842 13.267C4.87454 12.042 4.59333 11.2427 4.59333 11.2427C4.4951 10.9788 4.35449 10.9923 4.35449 10.9923L4.6357 13.4173Z" fill="#F8F8F8"/>
<path d="M4.68195 18.7025C4.68195 17.2752 5.46203 16.5684 6.70244 16.5684L8.6324 16.4894C8.6324 16.4894 8.52069 16.6377 8.32615 16.6839L7.06647 17.0942C5.99749 17.5237 5.51018 17.7394 5.17889 19.2013C5.17889 19.2013 4.75129 20.9021 4.6704 21.0812C4.55868 21.3316 4.42578 21.3836 4.42578 21.3836L4.68195 18.7025Z" fill="white"/>
<path d="M10.6548 4.2856C10.7627 4.249 10.7588 4.09491 10.649 4.0641L9.16208 3.66347C8.85005 3.57872 8.60736 3.33795 8.51876 3.02785L7.93322 0.610585C7.90433 0.493093 7.73675 0.493093 7.70786 0.612511L7.157 3.02015C7.07225 3.33988 6.82185 3.58642 6.50212 3.66924L5.0248 4.05254C4.91501 4.08143 4.9073 4.23552 5.01517 4.27404L6.57339 4.81335C6.85267 4.90966 7.0684 5.13694 7.15314 5.42007L7.70979 7.65243C7.73868 7.768 7.90433 7.76993 7.93322 7.65243L8.50912 5.41237C8.5958 5.12923 8.81345 4.90388 9.09466 4.8095L10.6548 4.2856Z" fill="white" stroke="white" stroke-width="0.192611" stroke-miterlimit="10"/>
</svg>
